<?xml version="1.0" encoding="utf-8"?>
<!-- Generator: Adobe Illustrator 26.0.0, SVG Export Plug-In . SVG Version: 6.00 Build 0)  -->
<svg version="1.1" id="Layer_1" xmlns="http://www.w3.org/2000/svg" xmlns:xlink="http://www.w3.org/1999/xlink" x="0px" y="0px"
	 viewBox="0 0 1024 1024" style="enable-background:new 0 0 1024 1024;" xml:space="preserve">
<style type="text/css">
	.st0{fill:#FFFFFF;}
	.st1{fill:#007AFF;}
</style>
<circle class="st0" cx="511.9" cy="512" r="372.7"/>
<path class="st1" d="M511.9,0C229.1,0-0.1,229.2-0.1,512s229.2,512,512,512s512-229.2,512-512C1023.9,229.2,794.7,0,511.9,0
	 M664.7,728.4c-35,29.9-84.4,44.8-148.2,44.8c-65.2,0-116.5-14.7-153.8-44.2c-37.4-29.5-56-69.9-56-121.5h98.8
	c3.2,22.6,9.5,39.5,18.9,50.7c17.2,20.4,46.5,30.6,88.2,30.6c24.9,0,45.2-2.7,60.7-8.1c29.5-10.3,44.3-29.4,44.3-57.4
	c0-16.3-7.2-29-21.7-38c-14.5-8.7-37.4-16.5-68.8-23.2l-53.6-11.8c-52.7-11.7-88.9-24.3-108.6-38c-33.4-22.9-50.1-58.6-50.1-107.2
	c0-44.4,16.3-81.2,49-110.5c32.6-29.4,80.6-44,143.9-44c52.8,0,97.9,13.8,135.2,41.5c37.3,27.7,56.8,67.8,58.7,120.5h-99.5
	c-1.8-29.8-15.1-50.9-39.9-63.5c-16.5-8.3-37.1-12.4-61.7-12.4c-27.3,0-49.1,5.4-65.4,16.1c-16.3,10.8-24.5,25.8-24.5,45
	c0,17.7,8,30.9,24.1,39.6c10.3,5.8,32.2,12.7,65.8,20.5l86.9,20.5c38.1,8.9,66.6,20.9,85.6,35.9c29.5,23.3,44.3,57,44.3,101.1
	C717.2,660.9,699.7,698.5,664.7,728.4"/>
</svg>
